<?xml version="1.0" encoding="UTF-8"?>
<svg id="Layer_1" xmlns="http://www.w3.org/2000/svg" version="1.1" viewBox="0 0 1080 461.8">
  <!-- Generator: Adobe Illustrator 29.7.1, SVG Export Plug-In . SVG Version: 2.1.1 Build 8)  -->
  <defs>
    <style>
      .st0 {
        fill: #0057c9;
      }
    </style>
  </defs>
  <path class="st0" d="M150,132.8v168.6h101.4v-17.6h-83.8v-133.4h133.3v36.8h17.6v-54.5h-168.6ZM306.7,303.3c-9.6,0-17.7-2.1-24.2-6.4-6.5-4.3-11.2-10.1-13.8-17.5l16.3-9.5c3.8,9.9,11.2,14.8,22.3,14.8s9.3-1,11.8-2.9c2.5-1.9,3.7-4.4,3.7-7.3s-1.5-6.1-4.6-8c-3-1.9-8.5-3.9-16.3-6.2-4.3-1.3-8-2.6-11-3.9-3-1.3-6-3-9-5.2-3-2.2-5.3-4.9-6.8-8.2-1.6-3.3-2.4-7.2-2.4-11.6,0-8.8,3.1-15.7,9.3-21,6.2-5.2,13.7-7.8,22.5-7.8s14.7,1.9,20.7,5.7c5.9,3.8,10.6,9.2,13.9,16l-16,9.3c-3.9-8.3-10-12.4-18.5-12.4s-7.1.9-9.3,2.7c-2.3,1.8-3.4,4.1-3.4,7s1.3,5.5,3.8,7.4c2.5,1.9,7.4,3.9,14.6,6.2,2.9.9,5.2,1.6,6.7,2.1,1.5.5,3.6,1.3,6.2,2.4,2.6,1.1,4.7,2.1,6.1,3,1.4.9,3.1,2.2,4.9,3.7,1.8,1.6,3.2,3.2,4.2,4.8,1,1.7,1.8,3.7,2.5,6s1,4.9,1,7.7c0,8.9-3.2,16-9.7,21.3-6.5,5.3-15,7.9-25.4,7.9ZM407.7,232.2h17.8v96.8h-17.8v-35.8c-5.3,6.7-12.7,10.1-22.4,10.1s-17.3-3.5-23.9-10.6c-6.6-7.1-9.9-15.7-9.9-25.9s3.3-18.9,9.9-25.9c6.6-7.1,14.5-10.6,23.9-10.6s17.1,3.4,22.4,10.1v-8.2ZM374.9,280.8c3.6,3.6,8.2,5.5,13.8,5.5s10.1-1.8,13.7-5.5c3.6-3.6,5.4-8.3,5.4-14s-1.8-10.4-5.4-14c-3.6-3.6-8.2-5.5-13.7-5.5s-10.1,1.8-13.8,5.5-5.5,8.3-5.5,14,1.8,10.4,5.5,14ZM487.5,232.2h17.8v69.1h-17.8v-7.7c-4.3,6.5-11.2,9.7-20.6,9.7s-13.8-2.5-18.7-7.6c-4.9-5.1-7.4-12.1-7.4-21v-42.5h17.8v40.2c0,4.6,1.2,8.1,3.7,10.6,2.5,2.4,5.8,3.7,10,3.7s8.3-1.4,11.1-4.3c2.8-2.9,4.1-7.1,4.1-12.9v-37.3ZM574.2,232.2h17.8v69.1h-17.8v-8.2c-5.3,6.7-12.9,10.1-22.5,10.1s-17.1-3.5-23.7-10.6c-6.6-7.1-9.9-15.7-9.9-25.9s3.3-18.9,9.9-25.9c6.6-7.1,14.5-10.6,23.7-10.6s17.2,3.4,22.5,10.1v-8.2ZM541.3,280.8c3.6,3.6,8.2,5.5,13.7,5.5s10.1-1.8,13.8-5.5,5.5-8.3,5.5-14-1.8-10.4-5.5-14c-3.6-3.6-8.2-5.5-13.8-5.5s-10.1,1.8-13.7,5.5c-3.6,3.6-5.4,8.3-5.4,14s1.8,10.4,5.4,14ZM626.1,244.1c1.7-4.4,4.4-7.7,8.2-10,3.8-2.2,8.1-3.3,12.8-3.3v19.9c-5.4-.6-10.3.5-14.6,3.3-4.3,2.9-6.4,7.6-6.4,14.2v33h-17.8v-69.1h17.8v11.9ZM669.9,274.1c2.4,8.7,8.9,13,19.5,13s12-2.3,15.5-6.9l14.4,8.3c-6.8,9.9-16.9,14.8-30.1,14.8s-20.6-3.5-27.5-10.4-10.4-15.6-10.4-26.1,3.4-19.1,10.2-26.1c6.8-7,15.6-10.4,26.3-10.4s18.5,3.5,25.1,10.5c6.6,7,9.9,15.7,9.9,26s-.2,4.7-.7,7.3h-52.1ZM669.7,260.3h35.3c-1-4.7-3.1-8.2-6.3-10.5-3.2-2.3-6.8-3.5-10.9-3.5s-8.8,1.2-11.9,3.7c-3.1,2.4-5.2,5.9-6.2,10.3ZM748.5,204.6h16.6v96.8h-19.1v-76.6l-18.3,5.1-4.7-16.3,25.4-9ZM882.2,301.4l-6.2-17.4h-39.8l-5.8,17.4h-20.6l33.9-96.8h23.6l34.2,96.8h-19.3ZM842.5,266.1h27.2l-14-39.5-13.3,39.5ZM919,223.9c-3,0-5.5-1.1-7.7-3.2-2.2-2.2-3.2-4.7-3.2-7.7s1.1-5.5,3.2-7.7c2.2-2.2,4.7-3.3,7.7-3.3s5.6,1.1,7.8,3.3c2.2,2.2,3.2,4.8,3.2,7.7s-1.1,5.5-3.2,7.7-4.8,3.2-7.8,3.2ZM910.1,301.4v-69.1h17.8v69.1h-17.8Z"/>
</svg>
